<svg xmlns="http://www.w3.org/2000/svg" xmlns:xlink="http://www.w3.org/1999/xlink" viewBox="0 0 186 272"><defs><filter id="a" width="292.6%" height="287.8%" x="-96.3%" y="-93.9%" filterUnits="objectBoundingBox"><feOffset in="SourceAlpha" result="shadowOffsetOuter1"/><feGaussianBlur in="shadowOffsetOuter1" result="shadowBlurOuter1" stdDeviation="2"/><feColorMatrix in="shadowBlurOuter1" values="0 0 0 0 0 0 0 0 0 0 0 0 0 0 0 0 0 0 0.5 0"/></filter><filter id="d" width="130.8%" height="700%" x="-15.4%" y="-300%" filterUnits="objectBoundingBox"><feGaussianBlur in="SourceGraphic" stdDeviation="8"/></filter><linearGradient id="c" x1="50%" x2="50%" y1="2.072%" y2="100%"><stop offset="0%" stop-color="#AFAFAF"/><stop offset="100%" stop-color="#616161"/></linearGradient><ellipse id="b" cx="44.869" cy="3.194" rx="3.116" ry="3.194"/></defs><g fill="none" fill-rule="evenodd" transform="translate(15)"><path fill="#FFF" d="M24 22h107.665v198H24V22zm6.223 27.733v101.902h95.84V49.733h-95.84z"/><path fill="#4C4C4D" fill-rule="nonzero" d="M61.926 172.347c0 1.217-.218 2.14-.653 2.77-.436.63-1.078.946-1.926.946-.832 0-1.47-.31-1.913-.928-.444-.618-.671-1.518-.683-2.7v-1.546c0-1.214.22-2.132.66-2.757.439-.624 1.08-.936 1.925-.936.832 0 1.468.301 1.908.904.44.602.666 1.49.682 2.664v1.583zm-.694-1.547c0-.988-.157-1.735-.471-2.24-.314-.507-.79-.76-1.425-.76-.625 0-1.095.247-1.41.741-.317.494-.479 1.223-.487 2.188v1.695c0 .984.163 1.736.489 2.258.326.522.799.782 1.42.782.616 0 1.083-.255 1.401-.764.318-.51.48-1.257.483-2.24v-1.66zm7.452 5.144h-5.272v-.545l2.885-3.355c.478-.565.81-1.031.994-1.398.185-.368.278-.726.278-1.073 0-.546-.156-.977-.469-1.295-.312-.318-.742-.478-1.289-.478-.567 0-1.024.186-1.373.558-.349.371-.523.853-.523 1.446h-.688c0-.486.107-.929.32-1.328.215-.399.519-.712.914-.94a2.67 2.67 0 011.35-.34c.77 0 1.373.207 1.807.622.433.415.65.98.65 1.695 0 .403-.122.844-.367 1.322-.245.478-.675 1.075-1.292 1.79l-2.347 2.72h4.422v.6zm1.232-.426a.51.51 0 01.13-.353.46.46 0 01.361-.145.47.47 0 01.365.145.503.503 0 01.133.353.462.462 0 01-.133.34.491.491 0 01-.365.134.482.482 0 01-.361-.133.468.468 0 01-.13-.341zm.011-5.471a.51.51 0 01.13-.353.46.46 0 01.362-.145.47.47 0 01.364.145.503.503 0 01.133.353.462.462 0 01-.133.34.491.491 0 01-.364.134.482.482 0 01-.361-.133.468.468 0 01-.13-.341zm7.609 2.3c0 1.217-.218 2.14-.653 2.77-.436.63-1.078.946-1.926.946-.832 0-1.47-.31-1.913-.928-.444-.618-.671-1.518-.683-2.7v-1.546c0-1.214.22-2.132.66-2.757.439-.624 1.08-.936 1.925-.936.832 0 1.468.301 1.908.904.439.602.666 1.49.682 2.664v1.583zm-.694-1.547c0-.988-.157-1.735-.471-2.24-.314-.507-.79-.76-1.425-.76-.625 0-1.095.247-1.41.741-.317.494-.479 1.223-.487 2.188v1.695c0 .984.163 1.736.489 2.258.326.522.799.782 1.42.782.616 0 1.083-.255 1.401-.764.318-.51.48-1.257.483-2.24v-1.66zm2.648.723l.41-4.209h4.21v.658h-3.614l-.295 2.917c.451-.317.98-.475 1.584-.475.76 0 1.365.253 1.816.76.45.505.676 1.179.676 2.02 0 .91-.22 1.614-.659 2.116-.44.502-1.058.753-1.856.753-.732 0-1.326-.21-1.78-.628-.455-.42-.716-1.006-.781-1.76h.665c.065.588.26 1.034.584 1.336.323.302.76.453 1.312.453.601 0 1.055-.195 1.362-.586.306-.392.46-.949.46-1.672 0-.632-.172-1.148-.515-1.547s-.812-.599-1.405-.599c-.328 0-.613.043-.856.128s-.499.25-.769.495l-.549-.16zm6.036 3.995a.51.51 0 01.13-.353.46.46 0 01.361-.145.47.47 0 01.365.145.503.503 0 01.132.353.462.462 0 01-.132.34.491.491 0 01-.365.134.482.482 0 01-.361-.133.468.468 0 01-.13-.341zm.011-5.471a.51.51 0 01.13-.353.46.46 0 01.362-.145.47.47 0 01.364.145.503.503 0 01.133.353.462.462 0 01-.133.34.491.491 0 01-.364.134.482.482 0 01-.362-.133.468.468 0 01-.13-.341zm5.753 5.897h-.694v-7.776l-2.29.871v-.664l2.868-1.09h.116v8.66zm8.418-3.597c0 1.217-.218 2.14-.654 2.77-.435.63-1.077.946-1.925.946-.832 0-1.47-.31-1.913-.928-.444-.618-.671-1.518-.683-2.7v-1.546c0-1.214.22-2.132.66-2.757.439-.624 1.08-.936 1.925-.936.832 0 1.468.301 1.908.904.439.602.666 1.49.682 2.664v1.583zm-.694-1.547c0-.988-.157-1.735-.471-2.24-.314-.507-.79-.76-1.425-.76-.625 0-1.095.247-1.411.741-.316.494-.478 1.223-.486 2.188v1.695c0 .984.163 1.736.489 2.258.326.522.799.782 1.42.782.616 0 1.083-.255 1.401-.764.318-.51.48-1.257.483-2.24v-1.66z"/><path fill="#292929" d="M110.746 199.926a.287.287 0 00-.307-.036.293.293 0 00-.165.264v5.165a.293.293 0 00.29.292c.065 0 .13-.022.182-.065l3.16-2.583a.294.294 0 000-.454l-3.16-2.583"/><g transform="translate(69.768 194.111)"><path d="M5.297 5.111H7.79v7.667H5.297zm3.739 0h2.493v7.667H9.036z" fill="#373737"/><ellipse cx="8.413" cy="8.625" stroke="#373737" rx="8.413" ry="8.625"/></g><path fill="#373737" d="M114.014 199.861h1.246v5.75h-1.246z"/><path fill="#292929" d="M45.615 205.546a.287.287 0 00.307.037.293.293 0 00.165-.264v-5.165a.293.293 0 00-.29-.293.287.287 0 00-.182.065l-3.16 2.583a.294.294 0 000 .454l3.16 2.583"/><path fill="#373737" d="M41.102 199.861h1.246v5.75h-1.246z"/><path fill="#000" fill-rule="nonzero" d="M54.72 202.847l3.543 2.58a.13.13 0 00.136.01.136.136 0 00.07-.121v-2.414l3.467 2.523c.04.029.092.033.136.01a.137.137 0 00.07-.121v-5.156a.137.137 0 00-.07-.12.129.129 0 00-.136.01l-3.467 2.522v-2.413a.137.137 0 00-.07-.121.129.129 0 00-.136.01l-3.543 2.58a.137.137 0 00-.055.11c0 .044.02.086.055.111zm47.397-.222l-3.542-2.58a.127.127 0 00-.136-.009.136.136 0 00-.07.12v2.414l-3.467-2.523a.128.128 0 00-.136-.01.137.137 0 00-.071.121v5.156c0 .05.027.097.07.12.02.01.04.016.061.016a.129.129 0 00.076-.025l3.466-2.523v2.414c0 .05.028.097.071.12a.129.129 0 00.136-.01l3.542-2.579a.137.137 0 00.056-.11.137.137 0 00-.056-.112z" opacity=".812"/><path fill="#4C4C4D" fill-rule="nonzero" d="M94.042 210.085h.211a.458.458 0 00.314-.107.364.364 0 00.114-.283c0-.266-.13-.399-.388-.399a.398.398 0 00-.291.107.379.379 0 00-.11.283h-.28c0-.18.064-.33.192-.449a.69.69 0 01.489-.178c.209 0 .373.057.491.17.12.113.178.27.178.472a.507.507 0 01-.093.287.568.568 0 01-.255.208c.122.04.216.105.282.196.067.092.1.204.1.336a.627.627 0 01-.195.485.718.718 0 01-.506.18.737.737 0 01-.508-.174.58.58 0 01-.195-.457h.283c0 .12.038.215.114.287a.428.428 0 00.306.108c.135 0 .24-.037.311-.11.072-.072.108-.177.108-.313a.39.39 0 00-.118-.304.52.52 0 00-.343-.11h-.211v-.235zm2.73.307c0 .338-.057.59-.17.754-.112.164-.288.246-.527.246-.237 0-.412-.08-.525-.24-.114-.161-.173-.401-.177-.72v-.386c0-.334.056-.582.17-.744.112-.162.288-.243.529-.243.238 0 .413.078.526.235.113.156.17.398.173.724v.374zm-.282-.394c0-.245-.034-.423-.1-.534-.067-.112-.173-.168-.318-.168-.144 0-.25.056-.315.167-.066.111-.1.282-.102.513v.462c0 .245.034.426.104.543.07.117.175.176.316.176a.338.338 0 00.31-.166c.067-.11.102-.283.105-.52v-.473zm2.14.35c-.251-.073-.434-.164-.548-.271a.526.526 0 01-.171-.399c0-.179.07-.327.21-.444a.818.818 0 01.543-.175c.152 0 .288.03.407.09.12.06.212.144.277.25a.65.65 0 01.098.348h-.294a.418.418 0 00-.127-.324.513.513 0 00-.36-.118.523.523 0 00-.338.098.328.328 0 00-.12.27c0 .093.037.171.114.235.077.064.207.123.391.176.184.053.328.111.432.175a.663.663 0 01.231.224c.05.085.076.186.076.301 0 .184-.07.331-.21.442-.14.11-.327.166-.562.166a1.02 1.02 0 01-.426-.09.72.72 0 01-.305-.245.61.61 0 01-.107-.354h.294c0 .137.05.246.148.325.099.08.231.12.396.12.154 0 .273-.033.355-.097a.317.317 0 00.123-.264.312.312 0 00-.114-.258c-.076-.06-.214-.12-.414-.18zm2.447-.037h-.96v.805h1.115v.245h-1.407v-2.27h1.392v.246h-1.1v.73h.96v.244zm1.082-.006l-.271.289v.767h-.292v-2.27h.292v1.122l.984-1.123h.353l-.871 1.003.94 1.268h-.35l-.785-1.056zm-46.754-.22h.211a.458.458 0 00.314-.107.364.364 0 00.114-.283c0-.266-.13-.399-.388-.399a.398.398 0 00-.292.107.379.379 0 00-.108.283h-.282c0-.18.064-.33.193-.449a.69.69 0 01.489-.178c.209 0 .372.057.491.17.119.113.178.27.178.472a.507.507 0 01-.093.287.568.568 0 01-.255.208.55.55 0 01.282.196c.066.092.1.204.1.336a.627.627 0 01-.195.485.718.718 0 01-.507.18.737.737 0 01-.507-.174.58.58 0 01-.196-.457h.283c0 .12.038.215.114.287a.428.428 0 00.306.108c.136 0 .24-.037.312-.11.072-.072.108-.177.108-.313a.39.39 0 00-.118-.304.521.521 0 00-.343-.11h-.211v-.235zm2.73.307c0 .338-.057.59-.17.754-.112.164-.288.246-.528.246-.236 0-.41-.08-.525-.24-.113-.161-.172-.401-.176-.72v-.386c0-.334.056-.582.169-.744.112-.162.289-.243.53-.243.238 0 .413.078.526.235.112.156.17.398.173.724v.374zm-.282-.394c0-.245-.034-.423-.1-.534-.068-.112-.174-.168-.319-.168-.144 0-.249.056-.315.167-.066.111-.1.282-.102.513v.462c0 .245.035.426.105.543.07.117.174.176.315.176a.338.338 0 00.31-.166c.067-.11.103-.283.106-.52v-.473zm2.139.35c-.25-.073-.433-.164-.547-.271a.526.526 0 01-.171-.399c0-.179.07-.327.209-.444a.818.818 0 01.544-.175c.152 0 .288.03.407.09s.211.144.277.25a.65.65 0 01.098.348h-.294a.418.418 0 00-.128-.324.513.513 0 00-.36-.118.523.523 0 00-.337.098.328.328 0 00-.121.27c0 .093.038.171.115.235.076.064.207.123.39.176.185.053.329.111.433.175a.663.663 0 01.231.224c.05.085.075.186.075.301 0 .184-.07.331-.21.442-.14.11-.327.166-.56.166a1.02 1.02 0 01-.427-.09.72.72 0 01-.305-.245.61.61 0 01-.107-.354h.293c0 .137.05.246.149.325.099.08.23.12.396.12a.57.57 0 00.355-.097.317.317 0 00.123-.264.312.312 0 00-.114-.258c-.076-.06-.214-.12-.414-.18zm2.448-.037h-.96v.805h1.115v.245h-1.407v-2.27h1.392v.246h-1.1v.73h.96v.244zm1.082-.006l-.271.289v.767h-.292v-2.27h.292v1.122l.984-1.123h.353l-.872 1.003.94 1.268h-.35l-.784-1.056zm-23.977-.083l.113-1.132h1.135v.267h-.896l-.067.619a.701.701 0 01.37-.098c.201 0 .362.068.48.205.119.137.178.321.178.554 0 .234-.061.419-.185.553-.123.135-.295.202-.516.202a.69.69 0 01-.48-.167.673.673 0 01-.21-.461h.265c.018.13.063.228.136.294.073.066.17.099.289.099.13 0 .233-.046.308-.137a.584.584 0 00.112-.38.535.535 0 00-.121-.365.407.407 0 00-.322-.138.456.456 0 00-.289.082l-.075.063-.225-.06zm2.842-1.132l.724 1.853.725-1.853h.379v2.271h-.293v-.884l.028-.955-.727 1.84h-.224l-.726-1.835.03.95v.884h-.293v-2.27h.377zm2.657 2.271h-.292v-2.27h.292v2.27zm2.236 0h-.293l-1.116-1.75v1.75h-.293v-2.27h.293l1.119 1.757v-1.758h.29v2.271zm61.438-1.139l.113-1.132h1.135v.267h-.896l-.067.619a.701.701 0 01.37-.098c.201 0 .362.068.48.205.119.137.178.321.178.554 0 .234-.061.419-.184.553-.124.135-.296.202-.517.202a.69.69 0 01-.48-.167.673.673 0 01-.21-.461h.265c.018.13.063.228.136.294.073.066.17.099.289.099.13 0 .234-.046.308-.137a.584.584 0 00.112-.38.535.535 0 00-.121-.365.407.407 0 00-.322-.138.456.456 0 00-.289.082l-.074.063-.226-.06zm2.842-1.132l.725 1.853.724-1.853h.379v2.271h-.292v-.884l.027-.955-.727 1.84h-.224l-.726-1.835.03.95v.884h-.293v-2.27h.377zm2.657 2.271h-.292v-2.27h.292v2.27zm2.236 0h-.293l-1.116-1.75v1.75h-.293v-2.27h.293l1.119 1.757v-1.758h.29v2.271z"/><g transform="translate(33 184.528)"><rect width="90.361" height="3.194" y="1.917" fill="#283540" rx="1.597"/><rect width="44.869" height="3.194" y="1.917" fill="#54CEC0" rx="1.597"/><use fill="#000" filter="url(#a)" xlink:href="#b"/><use fill="#D8D8D8" xlink:href="#b"/></g><g transform="translate(31.69 167)"><ellipse cx="4.806" cy="5" stroke="#373737" rx="4.806" ry="5"/><path fill="#4C4C4D" fill-rule="nonzero" d="M3.463 6.01h1.222v.24H3.13v-.22L4.3 4.27H3.15v-.242h1.488v.215L3.463 6.01zm1.8.01h.928v.23h-1.26v-.208l.876-1.21h-.862V4.6h1.202v.2l-.884 1.22z"/></g><g transform="translate(113.4 167)"><ellipse cx="4.806" cy="5" stroke="#373737" rx="4.806" ry="5"/><path fill="#4C4C4D" fill-rule="nonzero" d="M4.073 6.25h-.272V4.369l-.548.209V4.32l.778-.303h.042V6.25zm1.562-1.37l.512-.852h.332L5.804 5.13l.691 1.12h-.334l-.526-.867-.528.867h-.333l.693-1.12-.676-1.102h.33l.514.852z"/></g><path fill="#2C2825" d="M136.185 231.46c0 9.64-7.75 17.455-17.307 17.455H37.104c-9.558 0-17.307-7.815-17.307-17.455V17.093c0-8.883 7.135-16.08 15.943-16.08H120c8.938 0 16.185 7.31 16.185 16.324V231.46zM119.909 0H35.59C26.428 0 19 7.492 19 16.73v215.217c0 9.778 7.86 17.706 17.561 17.706h83.159c9.544 0 17.28-7.803 17.28-17.43V17.238C137 7.717 129.35 0 119.91 0z"/><path fill="url(#c)" d="M16.705.33C7.674.33.326 7.75.326 16.872v214.934c0 9.659 7.783 17.518 17.35 17.518h82.929c9.412 0 17.069-7.736 17.069-17.242V17.379c0-9.401-7.572-17.05-16.88-17.05H16.705zm83.9 249.323h-82.93C7.93 249.653 0 241.647 0 231.807V16.873C0 7.57 7.494 0 16.705 0h84.089C110.28 0 118 7.797 118 17.38v214.703c0 9.687-7.803 17.57-17.395 17.57z" transform="translate(19)"/><path fill="#12100E" d="M24.447 220.684h107.04V28.818H24.447v191.866zM119.887.975H35.872c-8.782 0-15.897 7.19-15.897 16.067v214.195c0 9.633 7.728 17.44 17.257 17.44h81.536c9.53 0 17.257-7.807 17.257-17.44V17.284c0-9.007-7.226-16.309-16.138-16.309z"/><path fill="#636363" d="M68.545 225.975c-1.971 0-3.57 1.618-3.57 3.616v9.674c0 1.996 1.599 3.615 3.57 3.615h19.128c1.972 0 3.571-1.62 3.571-3.615v-9.614c0-2.03-1.626-3.676-3.629-3.676h-19.07z"/><path fill="#070707" d="M87.168 241.782H69.366c-1.759 0-3.183-1.441-3.183-3.22v-8.352c0-1.778 1.424-3.22 3.183-3.22h17.802c1.759 0 3.183 1.442 3.183 3.22v8.353c0 1.778-1.424 3.22-3.183 3.22"/><ellipse cx="78" cy="248" fill="#000" filter="url(#d)" rx="78" ry="4"/></g></svg>